<?xml version="1.0" encoding="UTF-8"?>
<svg width="1200pt" height="1200pt" version="1.1" viewBox="0 0 1200 1200" xmlns="http://www.w3.org/2000/svg">
 <path d="m617.06 456.71v218.39h-34.078v-218.39h-34.078v-34.078h-235.87v34.078h-34.078v320.72h304.03v-34.078h-34.078l-0.046875-34.125h34.078v34.078h34.078l0.046875-34.078h34.078v34.078h-34.078v34.078h338.11l-0.046876-286.6h-68.156v184.31h-235.87v34.078h201.79v-320.68h-201.79v34.078h-34.078zm-102.33 101.95v34.078h34.078v34.078h-34.078v-34.078h-112.55v-34.078zm0-87.797v34.078h34.078v34.078h-34.078v-34.078h-112.55v-34.078zm170.53 87.797h112.55v34.078h-112.55v34.078h-34.078v-34.078h34.078zm0-87.797h112.55v34.078h-112.55v34.078h-34.078v-34.078h34.078zm-406.31 306.56h-34.172v-286.64h68.156v184.31h235.87v34.078l-201.71 0.046875v-320.72h201.79v34.078h34.078v34.078h68.156v-34.078h235.87v34.078h34.078l-0.046875 34.125v320.72h-642.19v-34.078z" fill-rule="evenodd"/>
</svg>
