<?xml version="1.0" encoding="UTF-8"?>
<svg width="1200pt" height="1200pt" version="1.1" viewBox="0 0 1200 1200" xmlns="http://www.w3.org/2000/svg">
 <path d="m651.14 344.21h136.5v34.078h33.938v34.078h34.078v34.078h34.078v136.5h-68.156v34.078h-34.078v34.078h-34.078v34.078h-34.078v34.078h-34.078v34.078h-34.078v34.078h-34.078v34.078h-68.156v-34.078h-34.078v-34.078h-34.078v-33.938h-34.078v-34.078h-34.078v-34.078h-34.078v-34.078h-34.078v-34.078l-0.046875-136.55h34.078v-34.078h34.078v-34.078h170.44v68.156h34.078v-34.078h34.078v-34.078l0.046875-34.172zm-68.203 477.52v34.078h34.078v-34.078h34.078v-34.078h34.078v-34.078h34.078l0.046875-34.172h34.078v-34.078h34.078v-34.078h34.078v-34.078h34.078v-170.63h-34.078v-34.078h-34.078v-34.078h-170.44v34.078h-68.156v-68.156h-136.55v34.078h-33.938v34.078h-34.078v34.078h-34.078v136.5h68.156v34.078h34.078v34.078h34.078v34.078h34.078v34.078h34.078v34.078h34.078v34.078h34.078v34.219z" fill-rule="evenodd"/>
</svg>
