<?xml version="1.0" encoding="UTF-8"?>
<svg width="1200pt" height="1200pt" version="1.1" viewBox="0 0 1200 1200" xmlns="http://www.w3.org/2000/svg">
 <path d="m628.2 854.16h-112.92v56.398h169.44v-56.398z"/>
 <path d="m1023.5 515.28h-56.402v-56.52h-56.52v-56.402h-56.398v-56.52h-56.52v-56.398h-56.402v-56.52h-56.52v-56.402h-56.52v-56.52h-56.398v56.52h-56.52v56.402h-56.52v56.52h-56.402v56.398h-56.52v56.52h-56.398v56.402h-56.52v56.52h-56.402v56.52h-56.52v112.92h56.52v395.28h338.76v-169.44h-56.52v112.92h-225.84v-451.68h56.52v-56.52h56.398v-56.52h56.52v-56.402h56.402v-56.52h56.52v-56.398h56.52v-56.52h56.398v56.52h56.52v56.398h56.52v56.52h56.402v56.402h56.52v56.52h56.398v56.52h56.52v451.68h-225.84v-112.92h-56.52v169.44h338.76v-395.28h56.52v-112.92h-56.52z"/>
</svg>
