<?xml version="1.0" encoding="UTF-8"?>
<svg width="1200pt" height="1200pt" version="1.1" viewBox="0 0 1200 1200" xmlns="http://www.w3.org/2000/svg">
 <path d="m423.12 221.04h50.52v-50.52h-101.04v101.04h50.52z"/>
 <path d="m625.2 625.2h-151.56v50.641h252.72v-50.641z"/>
 <path d="m776.88 574.8h-50.52v50.398h101.04v-101.04h-50.52z"/>
 <path d="m322.08 776.88v101.04h50.523v-50.523h50.52v-50.52z"/>
 <path d="m877.92 776.88h-101.04v50.52h50.52v50.523h50.523z"/>
 <path d="m271.56 928.44v50.52h50.52v-101.04h-50.52z"/>
 <path d="m574.8 120h-101.16v50.52h252.72v-50.52z"/>
 <path d="m776.88 221.04v50.52h50.52v-101.04h-101.04v50.52z"/>
 <path d="m827.4 372.6v151.56h50.523v-252.6h-50.523z"/>
 <path d="m372.6 423.12v-151.56h-50.523v252.6h50.523z"/>
 <path d="m423.12 574.8v-50.641h-50.52v101.04h101.04v-50.398z"/>
 <path d="m726.36 726.36h-303.24v50.52h353.76v-50.52z"/>
 <path d="m928.44 877.92h-50.52v101.04h50.52z"/>
 <path d="m221.04 1029.5v50.52h50.52v-101.04h-50.52z"/>
 <path d="m928.44 1080h50.52v-101.04h-50.52z"/>
 <path d="m675.84 372.6v50.52h50.52v-101.04h-50.52z"/>
 <path d="m524.16 372.6v-50.523h-50.52v101.04h50.52z"/>
 <path d="m524.16 524.16v50.641h101.04v-50.641z"/>
 <path d="m625.32 473.64h50.52v50.52h-50.52z"/>
</svg>
