<?xml version="1.0" encoding="UTF-8"?>
<svg width="1200pt" height="1200pt" version="1.1" viewBox="0 0 1200 1200" xmlns="http://www.w3.org/2000/svg">
 <path d="m567.96 120h63.961v63.961h-63.961z"/>
 <path d="m183.96 183.96h63.961v63.961h-63.961z"/>
 <path d="m504 183.96h63.961v63.961h-63.961z"/>
 <path d="m632.04 183.96h63.961v63.961h-63.961z"/>
 <path d="m120 248.04h63.961v63.961h-63.961z"/>
 <path d="m248.04 248.04h63.961v63.961h-63.961z"/>
 <path d="m440.04 248.04h63.961v63.961h-63.961z"/>
 <path d="m696 248.04h63.961v63.961h-63.961z"/>
 <path d="m183.96 312h63.961v63.961h-63.961z"/>
 <path d="m696 375.96h-255.96v-63.961h-64.078v128.04h64.078v511.92h127.92v128.04h192v-63.961h-127.92v-64.078h127.92v-511.92h64.078v-128.04h-64.078v63.961zm0 128.04v128.04h-63.961v63.961h63.961v128.04h-63.961v63.961h-128.04v-128.04h63.961v-63.961h-63.961v-128.04h63.961v-63.961h-63.961v-63.961h192z"/>
 <path d="m120 504h63.961v63.961h-63.961z"/>
 <path d="m183.96 567.96h63.961v63.961h-63.961z"/>
 <path d="m567.96 567.96h63.961v63.961h-63.961z"/>
 <path d="m248.04 696h63.961v63.961h-63.961z"/>
 <path d="m183.96 759.96h63.961v63.961h-63.961z"/>
 <path d="m312 759.96h63.961v63.961h-63.961z"/>
 <path d="m567.96 759.96h63.961v63.961h-63.961z"/>
 <path d="m248.04 824.04h63.961v63.961h-63.961z"/>
 <path d="m824.04 824.04h63.961v63.961h-63.961z"/>
 <path d="m888 183.96h63.961v63.961h-63.961z"/>
 <path d="m888 567.96h63.961v63.961h-63.961z"/>
 <path d="m888 888h63.961v63.961h-63.961z"/>
 <path d="m951.96 248.04h63.961v63.961h-63.961z"/>
 <path d="m951.96 504h63.961v63.961h-63.961z"/>
 <path d="m951.96 632.04h63.961v63.961h-63.961z"/>
 <path d="m1016 567.96h63.961v63.961h-63.961z"/>
</svg>
