<svg xmlns="http://www.w3.org/2000/svg" xmlns:xlink="http://www.w3.org/1999/xlink" version="1.1" x="0px" y="0px" viewBox="0 0 32 40" enable-background="new 0 0 32 32" xml:space="preserve"><g><path d="M21,7c0-0.96,0.35-2.08,0.92-3.16C19.88,2.67,17.52,2,15,2C7.27,2,1,8.27,1,16s6.27,14,14,14c1.39,0,1.99,0,3-0.58   C21.06,27.65,15,23,18,19c1.14-1.53,2.58-1.6,4.05-1.21c0.09-2.12,0.311-4.11,0.641-5.67l0.17-0.79C21.72,10.24,21,8.7,21,7z M5,14   c0-1.66,1.34-3,3-3s3,1.34,3,3s-1.34,3-3,3S5,15.66,5,14z M10,25c-1.66,0-3-1.34-3-3s1.34-3,3-3s3,1.34,3,3S11.66,25,10,25z    M14.04,11c-1.66,0-3-1.34-3-3s1.34-3,3-3s3,1.34,3,3S15.7,11,14.04,11z M30,20c0,2.58-0.22,11-3,11s-3-8.42-3-11   c0-2.81,0.24-5.52,0.65-7.47C25.37,12.83,26.17,13,27,13s1.63-0.17,2.35-0.47C29.76,14.48,30,17.19,30,20z M27,11   c-2.209,0-4-1.791-4-4s3-6,5-6c0,3,3,3,3,6C31,9.209,29.209,11,27,11z"/></g><text x="0" y="47" fill="#000000" font-size="5px" font-weight="bold" font-family="'Helvetica Neue', Helvetica, Arial-Unicode, Arial, Sans-serif">Created by Asep Yopie Hardi Noer</text><text x="0" y="52" fill="#000000" font-size="5px" font-weight="bold" font-family="'Helvetica Neue', Helvetica, Arial-Unicode, Arial, Sans-serif">from the Noun Project</text></svg>